<svg xmlns="http://www.w3.org/2000/svg" width="1240" height="660" viewBox="0 0 1240 660" role="img" aria-label="Business Unit 04 Model Output">
  <rect width="1240" height="660" rx="18" fill="#fff"/>
  <text x="36" y="38" fill="#26252b" font-family="Inter, Arial, sans-serif" font-size="22" font-weight="800">Business Unit 04 Model Output</text>
  <text x="36" y="64" fill="#68686e" font-family="Inter, Arial, sans-serif" font-size="13">Revenue, EBITDA and UFCF projections ($B)</text>
  <line x1="82" y1="522.0" x2="1182" y2="522.0" stroke="#e8e8ec" stroke-width="1"/><text x="72" y="526.0" text-anchor="end" fill="#777" font-family="Inter, Arial, sans-serif" font-size="11">$0</text><line x1="82" y1="436.0" x2="1182" y2="436.0" stroke="#e8e8ec" stroke-width="1"/><text x="72" y="440.0" text-anchor="end" fill="#777" font-family="Inter, Arial, sans-serif" font-size="11">$60</text><line x1="82" y1="350.0" x2="1182" y2="350.0" stroke="#e8e8ec" stroke-width="1"/><text x="72" y="354.0" text-anchor="end" fill="#777" font-family="Inter, Arial, sans-serif" font-size="11">$120</text><line x1="82" y1="264.0" x2="1182" y2="264.0" stroke="#e8e8ec" stroke-width="1"/><text x="72" y="268.0" text-anchor="end" fill="#777" font-family="Inter, Arial, sans-serif" font-size="11">$180</text><line x1="82" y1="178.0" x2="1182" y2="178.0" stroke="#e8e8ec" stroke-width="1"/><text x="72" y="182.0" text-anchor="end" fill="#777" font-family="Inter, Arial, sans-serif" font-size="11">$240</text><line x1="82" y1="92.0" x2="1182" y2="92.0" stroke="#e8e8ec" stroke-width="1"/><text x="72" y="96.0" text-anchor="end" fill="#777" font-family="Inter, Arial, sans-serif" font-size="11">$300</text><line x1="82" y1="522" x2="1182" y2="522" stroke="#c8c8cc"/><rect x="90.0" y="500.5" width="22.8" height="21.5" rx="4" fill="#e92c2c"/><rect x="116.8" y="508.7" width="22.8" height="13.3" rx="4" fill="#26252b"/><rect x="143.7" y="514.7" width="22.8" height="7.3" rx="4" fill="#999"/><text x="137.0" y="546" text-anchor="middle" fill="#555" font-family="Inter, Arial, sans-serif" font-size="11" transform="rotate(35 137.0,546)">2026</text><rect x="200.0" y="491.4" width="22.8" height="30.6" rx="4" fill="#e92c2c"/><rect x="226.8" y="502.8" width="22.8" height="19.2" rx="4" fill="#26252b"/><rect x="253.7" y="511.4" width="22.8" height="10.6" rx="4" fill="#999"/><text x="247.0" y="546" text-anchor="middle" fill="#555" font-family="Inter, Arial, sans-serif" font-size="11" transform="rotate(35 247.0,546)">2027</text><rect x="310.0" y="478.2" width="22.8" height="43.8" rx="4" fill="#e92c2c"/><rect x="336.8" y="494.3" width="22.8" height="27.7" rx="4" fill="#26252b"/><rect x="363.7" y="506.6" width="22.8" height="15.4" rx="4" fill="#999"/><text x="357.0" y="546" text-anchor="middle" fill="#555" font-family="Inter, Arial, sans-serif" font-size="11" transform="rotate(35 357.0,546)">2028</text><rect x="420.0" y="458.9" width="22.8" height="63.1" rx="4" fill="#e92c2c"/><rect x="446.8" y="481.8" width="22.8" height="40.2" rx="4" fill="#26252b"/><rect x="473.7" y="499.6" width="22.8" height="22.4" rx="4" fill="#999"/><text x="467.0" y="546" text-anchor="middle" fill="#555" font-family="Inter, Arial, sans-serif" font-size="11" transform="rotate(35 467.0,546)">2029</text><rect x="530.0" y="430.4" width="22.8" height="91.6" rx="4" fill="#e92c2c"/><rect x="556.8" y="463.3" width="22.8" height="58.7" rx="4" fill="#26252b"/><rect x="583.7" y="489.1" width="22.8" height="32.9" rx="4" fill="#999"/><text x="577.0" y="546" text-anchor="middle" fill="#555" font-family="Inter, Arial, sans-serif" font-size="11" transform="rotate(35 577.0,546)">2030</text><rect x="640.0" y="402.3" width="22.8" height="119.7" rx="4" fill="#e92c2c"/><rect x="666.8" y="445.1" width="22.8" height="76.9" rx="4" fill="#26252b"/><rect x="693.7" y="479.1" width="22.8" height="42.9" rx="4" fill="#999"/><text x="687.0" y="546" text-anchor="middle" fill="#555" font-family="Inter, Arial, sans-serif" font-size="11" transform="rotate(35 687.0,546)">2031</text><rect x="750.0" y="365.3" width="22.8" height="156.7" rx="4" fill="#e92c2c"/><rect x="776.8" y="420.8" width="22.8" height="101.2" rx="4" fill="#26252b"/><rect x="803.7" y="465.7" width="22.8" height="56.3" rx="4" fill="#999"/><text x="797.0" y="546" text-anchor="middle" fill="#555" font-family="Inter, Arial, sans-serif" font-size="11" transform="rotate(35 797.0,546)">2032</text><rect x="860.0" y="316.1" width="22.8" height="205.9" rx="4" fill="#e92c2c"/><rect x="886.8" y="388.7" width="22.8" height="133.3" rx="4" fill="#26252b"/><rect x="913.7" y="448.1" width="22.8" height="73.9" rx="4" fill="#999"/><text x="907.0" y="546" text-anchor="middle" fill="#555" font-family="Inter, Arial, sans-serif" font-size="11" transform="rotate(35 907.0,546)">2033</text><rect x="970.0" y="250.6" width="22.8" height="271.4" rx="4" fill="#e92c2c"/><rect x="996.8" y="346.1" width="22.8" height="175.9" rx="4" fill="#26252b"/><rect x="1023.7" y="424.7" width="22.8" height="97.3" rx="4" fill="#999"/><text x="1017.0" y="546" text-anchor="middle" fill="#555" font-family="Inter, Arial, sans-serif" font-size="11" transform="rotate(35 1017.0,546)">2034</text><rect x="1080.0" y="163.7" width="22.8" height="358.3" rx="4" fill="#e92c2c"/><rect x="1106.8" y="289.1" width="22.8" height="232.9" rx="4" fill="#26252b"/><rect x="1133.7" y="393.7" width="22.8" height="128.3" rx="4" fill="#999"/><text x="1127.0" y="546" text-anchor="middle" fill="#555" font-family="Inter, Arial, sans-serif" font-size="11" transform="rotate(35 1127.0,546)">2035</text><rect x="82" y="591" width="18" height="10" rx="2" fill="#e92c2c"/><text x="108" y="602" fill="#26252b" font-family="Inter, Arial, sans-serif" font-size="13" font-weight="700">Revenue</text><rect x="272" y="591" width="18" height="10" rx="2" fill="#26252b"/><text x="298" y="602" fill="#26252b" font-family="Inter, Arial, sans-serif" font-size="13" font-weight="700">EBITDA</text><rect x="462" y="591" width="18" height="10" rx="2" fill="#999"/><text x="488" y="602" fill="#26252b" font-family="Inter, Arial, sans-serif" font-size="13" font-weight="700">UFCF</text>
</svg>