<svg xmlns="http://www.w3.org/2000/svg" width="1240" height="660" viewBox="0 0 1240 660" role="img" aria-label="Revenue and UFCF Projection Profile">
  <rect width="1240" height="660" rx="18" fill="#fff"/>
  <text x="36" y="38" fill="#26252b" font-family="Inter, Arial, sans-serif" font-size="22" font-weight="800">Revenue and UFCF Projection Profile</text>
  <text x="36" y="64" fill="#68686e" font-family="Inter, Arial, sans-serif" font-size="13">Consolidated revenue and unlevered FCF ($B)</text>
  <line x1="82" y1="522.0" x2="1182" y2="522.0" stroke="#e8e8ec" stroke-width="1"/><text x="72" y="526.0" text-anchor="end" fill="#777" font-family="Inter, Arial, sans-serif" font-size="11">$0B</text><line x1="82" y1="436.0" x2="1182" y2="436.0" stroke="#e8e8ec" stroke-width="1"/><text x="72" y="440.0" text-anchor="end" fill="#777" font-family="Inter, Arial, sans-serif" font-size="11">$235B</text><line x1="82" y1="350.0" x2="1182" y2="350.0" stroke="#e8e8ec" stroke-width="1"/><text x="72" y="354.0" text-anchor="end" fill="#777" font-family="Inter, Arial, sans-serif" font-size="11">$470B</text><line x1="82" y1="264.0" x2="1182" y2="264.0" stroke="#e8e8ec" stroke-width="1"/><text x="72" y="268.0" text-anchor="end" fill="#777" font-family="Inter, Arial, sans-serif" font-size="11">$706B</text><line x1="82" y1="178.0" x2="1182" y2="178.0" stroke="#e8e8ec" stroke-width="1"/><text x="72" y="182.0" text-anchor="end" fill="#777" font-family="Inter, Arial, sans-serif" font-size="11">$941B</text><line x1="82" y1="92.0" x2="1182" y2="92.0" stroke="#e8e8ec" stroke-width="1"/><text x="72" y="96.0" text-anchor="end" fill="#777" font-family="Inter, Arial, sans-serif" font-size="11">$1,176B</text><line x1="82" y1="522" x2="1182" y2="522" stroke="#c8c8cc"/><polyline points="82.0,518.4 204.2,516.6 326.4,514.0 448.7,510.0 570.9,503.8 693.1,497.5 815.3,489.0 937.6,477.1 1059.8,460.6 1182.0,437.0" fill="none" stroke="#e92c2c" stroke-width="3" stroke-linecap="round" stroke-linejoin="round"/><circle cx="82.0" cy="518.4" r="4" fill="#e92c2c" stroke="#fff" stroke-width="1.5"/><circle cx="204.2" cy="516.6" r="4" fill="#e92c2c" stroke="#fff" stroke-width="1.5"/><circle cx="326.4" cy="514.0" r="4" fill="#e92c2c" stroke="#fff" stroke-width="1.5"/><circle cx="448.7" cy="510.0" r="4" fill="#e92c2c" stroke="#fff" stroke-width="1.5"/><circle cx="570.9" cy="503.8" r="4" fill="#e92c2c" stroke="#fff" stroke-width="1.5"/><circle cx="693.1" cy="497.5" r="4" fill="#e92c2c" stroke="#fff" stroke-width="1.5"/><circle cx="815.3" cy="489.0" r="4" fill="#e92c2c" stroke="#fff" stroke-width="1.5"/><circle cx="937.6" cy="477.1" r="4" fill="#e92c2c" stroke="#fff" stroke-width="1.5"/><circle cx="1059.8" cy="460.6" r="4" fill="#e92c2c" stroke="#fff" stroke-width="1.5"/><circle cx="1182.0" cy="437.0" r="4" fill="#e92c2c" stroke="#fff" stroke-width="1.5"/><polyline points="82.0,501.7 204.2,493.0 326.4,480.4 448.7,461.6 570.9,433.8 693.1,402.5 815.3,364.3 937.6,312.0 1059.8,239.6 1182.0,138.1" fill="none" stroke="#26252b" stroke-width="3" stroke-linecap="round" stroke-linejoin="round" stroke-dasharray="8 5"/><circle cx="82.0" cy="501.7" r="4" fill="#26252b" stroke="#fff" stroke-width="1.5"/><circle cx="204.2" cy="493.0" r="4" fill="#26252b" stroke="#fff" stroke-width="1.5"/><circle cx="326.4" cy="480.4" r="4" fill="#26252b" stroke="#fff" stroke-width="1.5"/><circle cx="448.7" cy="461.6" r="4" fill="#26252b" stroke="#fff" stroke-width="1.5"/><circle cx="570.9" cy="433.8" r="4" fill="#26252b" stroke="#fff" stroke-width="1.5"/><circle cx="693.1" cy="402.5" r="4" fill="#26252b" stroke="#fff" stroke-width="1.5"/><circle cx="815.3" cy="364.3" r="4" fill="#26252b" stroke="#fff" stroke-width="1.5"/><circle cx="937.6" cy="312.0" r="4" fill="#26252b" stroke="#fff" stroke-width="1.5"/><circle cx="1059.8" cy="239.6" r="4" fill="#26252b" stroke="#fff" stroke-width="1.5"/><circle cx="1182.0" cy="138.1" r="4" fill="#26252b" stroke="#fff" stroke-width="1.5"/><text x="82.0" y="546" text-anchor="middle" fill="#555" font-family="Inter, Arial, sans-serif" font-size="12">2026</text><text x="204.2" y="546" text-anchor="middle" fill="#555" font-family="Inter, Arial, sans-serif" font-size="12">2027</text><text x="326.4" y="546" text-anchor="middle" fill="#555" font-family="Inter, Arial, sans-serif" font-size="12">2028</text><text x="448.7" y="546" text-anchor="middle" fill="#555" font-family="Inter, Arial, sans-serif" font-size="12">2029</text><text x="570.9" y="546" text-anchor="middle" fill="#555" font-family="Inter, Arial, sans-serif" font-size="12">2030</text><text x="693.1" y="546" text-anchor="middle" fill="#555" font-family="Inter, Arial, sans-serif" font-size="12">2031</text><text x="815.3" y="546" text-anchor="middle" fill="#555" font-family="Inter, Arial, sans-serif" font-size="12">2032</text><text x="937.6" y="546" text-anchor="middle" fill="#555" font-family="Inter, Arial, sans-serif" font-size="12">2033</text><text x="1059.8" y="546" text-anchor="middle" fill="#555" font-family="Inter, Arial, sans-serif" font-size="12">2034</text><text x="1182.0" y="546" text-anchor="middle" fill="#555" font-family="Inter, Arial, sans-serif" font-size="12">2035</text><line x1="82" y1="597" x2="104" y2="597" stroke="#e92c2c" stroke-width="4"/><text x="114" y="602" fill="#26252b" font-family="Inter, Arial, sans-serif" font-size="13" font-weight="700">Total UFCF</text><line x1="302" y1="597" x2="324" y2="597" stroke="#26252b" stroke-width="4"/><text x="334" y="602" fill="#26252b" font-family="Inter, Arial, sans-serif" font-size="13" font-weight="700">Total Revenue</text>
</svg>